<svg xmlns="http://www.w3.org/2000/svg" version="1.1" xmlns:xlink="http://www.w3.org/1999/xlink" xmlns:svgjs="http://svgjs.dev/svgjs" width="1500" height="416" viewBox="0 0 1500 416"><g transform="matrix(1,0,0,1,-0.9090909090909918,-0.16429865903123186)"><svg viewBox="0 0 396 110" data-background-color="#000000" preserveAspectRatio="xMidYMid meet" height="416" width="1500" xmlns="http://www.w3.org/2000/svg" xmlns:xlink="http://www.w3.org/1999/xlink"><g id="tight-bounds" transform="matrix(1,0,0,1,0.2400000000000091,0.043444356955376406)"><svg viewBox="0 0 395.52 109.91311128608925" height="109.91311128608925" width="395.52"><g><svg viewBox="0 0 395.52 109.91311128608925" height="109.91311128608925" width="395.52"><g><svg viewBox="0 0 395.52 109.91311128608925" height="109.91311128608925" width="395.52"><g id="textblocktransform"><svg viewBox="0 0 395.52 109.91311128608925" height="109.91311128608925" width="395.52" id="textblock"><g><svg viewBox="0 0 395.52 109.91311128608925" height="109.91311128608925" width="395.52"><rect width="395.52" height="109.91311128608925" x="0" y="0" opacity="1" fill="#ffffff" data-fill-palette-color="tertiary"></rect><g transform="matrix(1,0,0,1,23.607599999999998,23.6076)"><svg width="348.3048" viewBox="0.75 -33.7 228.57 41.150000000000006" height="62.697911286089244" data-palette-color="#000000"><path d="M0.75-2.6L2.4-9 2.4-24.05 1.3-24.35 3.15-31.7 22.85-26.3 21.2-19.9 21.2-4.3 20.1-4.3 19.15-0.7 22.35 0.15 20.4 7.45 11.6 5.05 12.75 0.65 0.75-2.6ZM9.95-21.95L9.95-7.95 13.65-6.95 13.65-20.95 9.95-21.95ZM35.55-2.15L34.8 0.6 23.85-2.4 25.5-8.6 25.5-17.25 23.85-17.7 25.8-25 34.6-22.6 33.05-16.8 33.05-7.7 35.8-6.95 36.25-8.6 36.25-17.25 34.6-17.7 36.55-25 45.35-22.6 43.8-16.8 43.8-7.7 45.35-7.3 43.4 0 35.55-2.15ZM63.3-5.9L61.34 1.4 46.84-2.55 47.7-5.75 47.7-19.6 52.05-19.6 51.14-20.35 55.99-26.15 65.3-18.25 60.45-12.5 61.24-9.6 55.49-8 63.3-5.9ZM58.2-14.35L55.24-16.85 55.24-13.55 58.2-14.35ZM81.79-5.8L74.84 0.1 67.04-2 70.64-8.85 79.64-6.4 75.49-12.3 71.54-9.55 66.29-17.1 72.09-22 72.09-22 77.74-26.75 85.44-24.7 81.79-17.85 73.39-20.15 77.09-14.85 80.99-17.6 84.24-12.95 83.74-7.45 81.79-5.8 81.79-5.8ZM97.94-7.3L95.99 0 87.19-2.4 88.74-8.2 88.74-21.15 86.44-21.35 87.14-28.85 88.74-28.7 88.74-31.7 96.29-31.7 96.29-28 98.74-27.75 98.04-20.25 96.29-20.4 96.29-8.7 92.79-8.7 97.94-7.3ZM118.49-7.35L116.54-0.05 107.74-2.45 109.29-8.25 109.29-25 113.44-25 108.24-26.4 110.24-33.7 129.74-28.35 128.09-22.35 128.09-7.8 129.74-7.35 127.79-0.05 118.99-2.45 120.54-8.25 120.54-16.3 119.54-12.6 116.84-13.35 116.84-7.8 118.49-7.35ZM116.84-24.05L116.84-18.95 120.54-17.95 120.54-23.05 116.84-24.05ZM141.98-7.3L140.03 0 131.23-2.4 132.78-8.2 132.78-16.5 131.23-16.9 133.18-24.2 140.53-22.2 141.08-24.2 147.08-22.55 145.13-15.25 140.33-16.55 140.33-7.75 141.98-7.3ZM159.28 0.55L159.28 0.55 159.28 0.55 148.33-2.45 148.88-4.5 148.88-17.6 153.53-17.6 149.58-18.65 151.43-25.95 166.28-22.05 164.38-14.7 156.43-16.8 156.43-8.05 158.28-7.55 162.73-10.1 166.53-3.6 159.33 0.55 159.28 0.55 159.28 0.55ZM178.18-2.15L177.58 0.15 168.03-2.45 168.58-4.5 168.58-19.6 172.53-19.6 174.03-25.5 188.88-21.6 186.98-14.25 185.98-14.5 185.98-7.85 188.58-7.15 186.63 0.15 178.18-2.15ZM176.13-17.15L176.13-8.1 178.43-7.45 178.43-7.5 178.43-16.55 176.13-17.15ZM203.53-4.3L202.23 0.7 190.38-2.5 190.88-4.4 190.88-19.6 197.68-19.6 193.28-30.5 200.28-33.35 209.38-10.9 209.38-10.9 209.38-4.3 203.53-4.3ZM198.43-17.8L198.43-8.15 201.83-7.25 201.83-9.4 198.43-17.8ZM227.32-5.9L225.37 1.4 210.87-2.55 211.72-5.75 211.72-19.6 216.07-19.6 215.17-20.35 220.02-26.15 229.32-18.25 224.47-12.5 225.27-9.6 219.52-8 227.32-5.9ZM222.22-14.35L219.27-16.85 219.27-13.55 222.22-14.35Z" opacity="1" transform="matrix(1,0,0,1,0,0)" fill="#000000" class="wordmark-text-0" data-fill-palette-color="quaternary" id="text-0"></path></svg></g></svg></g></svg></g></svg></g></svg></g><defs></defs></svg><rect width="395.52" height="109.91311128608925" fill="none" stroke="none" visibility="hidden"></rect></g></svg></g></svg>